<svg width="260" height="147" viewBox="0 0 260 147" fill="none" xmlns="http://www.w3.org/2000/svg">
<g filter="url(#filter0_dd_559_987)">
<path d="M30 45.5C30 37.2157 36.7157 30.5 45 30.5H215C223.284 30.5 230 37.2157 230 45.5V69.8506C230 76.2282 225.967 81.9086 219.946 84.0116L130.678 115.191C127.334 116.359 123.685 116.306 120.377 115.042L39.6448 84.1862C33.8365 81.9663 30 76.3929 30 70.1747V45.5Z" fill="#1697B3" fill-opacity="0.75" shape-rendering="crispEdges"/>
<path d="M30.5 45.5C30.5 37.4919 36.9919 31 45 31H215C223.008 31 229.5 37.4919 229.5 45.5V69.8506C229.5 76.0157 225.602 81.5067 219.781 83.5396L130.513 114.719C127.281 115.848 123.753 115.797 120.555 114.575L39.8233 83.7192C34.2086 81.5732 30.5 76.1856 30.5 70.1747V45.5Z" stroke="url(#paint0_linear_559_987)" stroke-opacity="0.5" style="mix-blend-mode:overlay" shape-rendering="crispEdges"/>
</g>
<defs>
<filter id="filter0_dd_559_987" x="0" y="0.5" width="260" height="145.53" filterUnits="userSpaceOnUse" color-interpolation-filters="sRGB">
<feFlood flood-opacity="0" result="BackgroundImageFix"/>
<feColorMatrix in="SourceAlpha" type="matrix" values="0 0 0 0 0 0 0 0 0 0 0 0 0 0 0 0 0 0 127 0" result="hardAlpha"/>
<feOffset dx="10" dy="10"/>
<feGaussianBlur stdDeviation="10"/>
<feComposite in2="hardAlpha" operator="out"/>
<feColorMatrix type="matrix" values="0 0 0 0 0 0 0 0 0 0 0 0 0 0 0 0 0 0 0.5 0"/>
<feBlend mode="overlay" in2="BackgroundImageFix" result="effect1_dropShadow_559_987"/>
<feColorMatrix in="SourceAlpha" type="matrix" values="0 0 0 0 0 0 0 0 0 0 0 0 0 0 0 0 0 0 127 0" result="hardAlpha"/>
<feOffset dx="-10" dy="-10"/>
<feGaussianBlur stdDeviation="10"/>
<feComposite in2="hardAlpha" operator="out"/>
<feColorMatrix type="matrix" values="0 0 0 0 1 0 0 0 0 1 0 0 0 0 1 0 0 0 0.5 0"/>
<feBlend mode="overlay" in2="effect1_dropShadow_559_987" result="effect2_dropShadow_559_987"/>
<feBlend mode="normal" in="SourceGraphic" in2="effect2_dropShadow_559_987" result="shape"/>
</filter>
<linearGradient id="paint0_linear_559_987" x1="128.5" y1="311" x2="128.5" y2="361" gradientUnits="userSpaceOnUse">
<stop stop-color="white"/>
<stop offset="1"/>
</linearGradient>
</defs>
</svg>
