<svg width="36" height="30" viewBox="0 0 36 30" fill="none" xmlns="http://www.w3.org/2000/svg">
<path d="M16.1111 1H14.2222C6.91979 1 1 6.48451 1 13.25V18.5C1 20.433 2.69137 22 4.77778 22H9.20045H16.1111C22.3703 22 27.4444 17.299 27.4444 11.5C27.4444 10.6552 27.3367 9.83361 27.1334 9.04651C25.9408 4.43102 21.4584 1 16.1111 1Z" fill="#FFF478"/>
<path d="M27.1334 9.04651C31.7676 10.9508 35 15.2507 35 20.25V25.5C35 27.433 33.3086 29 31.2222 29H19.8889C14.9543 29 10.7563 26.0782 9.20044 22M27.1334 9.04651C25.9408 4.43102 21.4584 1 16.1111 1H14.2222C6.91979 1 1 6.48451 1 13.25V18.5C1 20.433 2.69137 22 4.77778 22H9.20044M27.1334 9.04651C27.3367 9.83361 27.4444 10.6552 27.4444 11.5C27.4444 17.299 22.3703 22 16.1111 22H9.20044" stroke="#FFF478" stroke-width="1.5" stroke-linejoin="round"/>
</svg>
