<svg width="27" height="31" viewBox="0 0 27 31" fill="none" xmlns="http://www.w3.org/2000/svg">
<path d="M1 14.9435C1 12.519 1 11.3067 1.49011 10.2411C1.98022 9.17547 2.90065 8.38652 4.74152 6.80864L6.52724 5.27802C9.85459 2.42601 11.5183 1 13.5 1C15.4817 1 17.1454 2.42601 20.4728 5.27802L22.2585 6.80864C24.0993 8.38652 25.0198 9.17547 25.5099 10.2411C26 11.3067 26 12.519 26 14.9435V22.5157C26 25.8828 26 27.5664 24.954 28.6125C23.9079 29.6585 22.2243 29.6585 18.8571 29.6585H8.14286C4.77568 29.6585 3.09209 29.6585 2.04605 28.6125C1 27.5664 1 25.8828 1 22.5157V14.9435Z" fill="#FFF478" stroke="black"/>
<path d="M17.9286 26.7143V17.7857C17.9286 16.7995 17.1291 16 16.1429 16H10.7857C9.79949 16 9 16.7995 9 17.7857V26.7143" stroke="black" stroke-width="3" stroke-linejoin="round"/>
</svg>
