<svg width="25" height="29" viewBox="0 0 25 29" fill="none" xmlns="http://www.w3.org/2000/svg">
<path d="M0 13.9435C0 11.519 0 10.3067 0.49011 9.24107C0.980219 8.17547 1.90065 7.38652 3.74152 5.80864L5.52724 4.27802C8.85459 1.42601 10.5183 0 12.5 0C14.4817 0 16.1454 1.42601 19.4728 4.27802L21.2585 5.80864C23.0993 7.38652 24.0198 8.17547 24.5099 9.24107C25 10.3067 25 11.519 25 13.9435V21.5157C25 24.8828 25 26.5664 23.954 27.6125C22.9079 28.6585 21.2243 28.6585 17.8571 28.6585H7.14286C3.77568 28.6585 2.09209 28.6585 1.04605 27.6125C0 26.5664 0 24.8828 0 21.5157V13.9435Z" fill="#1697B3"/>
<path d="M16.9286 25.7143V16.7857C16.9286 15.7995 16.1291 15 15.1429 15H9.78571C8.79949 15 8 15.7995 8 16.7857V25.7143" stroke="black" stroke-width="3" stroke-linejoin="round"/>
</svg>
