<svg width="34" height="40" viewBox="0 0 34 40" fill="none" xmlns="http://www.w3.org/2000/svg">
<path d="M2.92295 39.7348L2.39023 39.549C1.67005 39.2973 1.06364 38.7964 0.680549 38.1367C0.295944 37.4745 0.147438 36.7014 0.259324 35.9438C0.377363 35.1877 0.753896 34.4959 1.32478 33.9863C1.89047 33.4766 2.6201 33.1866 3.38135 33.1687H33.5113C33.5733 33.305 33.5113 33.3669 33.5113 33.4413C32.9258 34.343 32.6143 35.3952 32.6143 36.4703C32.6143 37.5455 32.9258 38.5977 33.5113 39.4994C33.5113 39.5738 33.6352 39.6357 33.6104 39.7348H2.92295Z" fill="#FFF478"/>
<path d="M0.185044 31.967V4.71122C0.154763 3.67568 0.479995 2.66097 1.10662 1.83599C1.73325 1.01101 2.62348 0.425499 3.62918 0.176853C3.96369 0.11135 4.30431 0.0822636 4.64508 0.0901213H33.2264C33.5733 0.0901213 33.6353 0.20163 33.6353 0.523743C33.6353 10.4845 33.6353 20.4452 33.6353 30.4059C33.6353 30.8024 33.5114 30.8643 33.1645 30.8643H4.08757C2.69986 30.7836 1.32532 31.172 0.185044 31.967ZM17.5296 6.59433C15.6794 6.56976 13.8638 7.09592 12.3134 8.10594C10.7631 9.11596 9.54812 10.5642 8.82301 12.2665C8.09789 13.9689 7.89538 15.8484 8.24123 17.6661C8.58707 19.4838 9.46564 21.1576 10.7652 22.4747C12.0648 23.7918 13.7268 24.6927 15.5397 25.0628C17.3526 25.4329 19.2347 25.2555 20.9465 24.5532C22.6584 23.8509 24.1227 22.6554 25.1534 21.1187C26.1841 19.582 26.7345 17.7736 26.7346 15.9232C26.7445 13.4674 25.7819 11.1076 24.057 9.35947C22.3321 7.61137 19.9853 6.61723 17.5296 6.59433Z" fill="#FFF478"/>
<path d="M10.567 15.9357C10.5681 14.5532 10.9728 13.2012 11.7315 12.0455C12.4845 10.8945 13.5625 9.99323 14.8288 9.45622C16.0922 8.92377 17.4871 8.78557 18.8304 9.05977C20.1718 9.33534 21.4009 10.0038 22.3613 10.9801C23.3322 11.9606 23.9917 13.2063 24.2568 14.5605C24.5179 15.9209 24.3802 17.3277 23.8603 18.6117C23.3397 19.89 22.4515 20.9852 21.3082 21.7585C20.1753 22.5262 18.8362 22.9323 17.4676 22.923C16.5608 22.9282 15.6626 22.7469 14.8288 22.3903C13.9844 22.041 13.2179 21.5272 12.574 20.8789C11.9413 20.2461 11.4366 19.4974 11.0873 18.6736C10.7334 17.8047 10.5565 16.8739 10.567 15.9357ZM18.595 17.5215C18.595 16.8277 18.595 16.1463 18.595 15.4649C18.595 15.2543 18.595 15.1676 18.3225 15.1676H16.6871C16.4889 15.1676 16.4146 15.2295 16.4146 15.4277V19.4913C16.4146 19.7267 16.5013 19.7639 16.7119 19.7639H18.2729C18.5083 19.7639 18.595 19.7019 18.595 19.4417C18.5826 18.8099 18.595 18.1657 18.595 17.5215ZM17.5048 11.6986C17.2046 11.6776 16.907 11.7667 16.6676 11.9491C16.4282 12.1315 16.2634 12.3947 16.204 12.6898C16.1794 12.8326 16.1843 12.979 16.2183 13.1199C16.2523 13.2609 16.3147 13.3934 16.4017 13.5093C16.4887 13.6253 16.5984 13.7223 16.7242 13.7944C16.8499 13.8665 16.9891 13.9122 17.1331 13.9287C17.44 14.029 17.773 14.0139 18.0695 13.8861C18.3661 13.7584 18.6058 13.5268 18.7437 13.2348C19.041 12.3924 18.4711 11.6986 17.5296 11.6986H17.5048Z" fill="#FFF478"/>
</svg>
