<svg width="32" height="32" viewBox="0 0 32 32" fill="none" xmlns="http://www.w3.org/2000/svg">
<mask id="mask0_121_2090" style="mask-type:luminance" maskUnits="userSpaceOnUse" x="-1" y="0" width="33" height="32">
<path d="M31.6159 0.832275H-0.00683594V31.401H31.6159V0.832275Z" fill="white"/>
</mask>
<g mask="url(#mask0_121_2090)">
<path d="M28.3481 0.832275C28.7313 0.927693 29.108 1.04739 29.4759 1.19066C29.9972 1.42342 30.4557 1.77663 30.8137 2.22121C31.1717 2.66579 31.4191 3.18903 31.5354 3.74789C31.6517 4.30674 31.6336 4.88522 31.4827 5.43573C31.3317 5.98623 31.0522 6.49303 30.6671 6.91439C30.393 7.20954 30.0873 7.47306 29.8027 7.7682C29.6868 7.88415 29.6235 7.87361 29.5076 7.7682L24.4479 2.87722C24.3741 2.80343 24.2793 2.75073 24.4479 2.63478C25.0518 1.90378 25.8369 1.34403 26.7248 1.01147L27.3361 0.842811L28.3481 0.832275Z" fill="#FFF478"/>
<path d="M-0.00683594 31.285C0.0880324 31.2217 0.0985734 31.1163 0.130196 31.032C0.97347 28.8535 1.81323 26.6716 2.64948 24.4861C2.70218 24.3596 2.74434 24.2436 2.79705 24.1277C2.84975 24.0117 2.97625 24.2331 3.03949 24.3069L7.37181 28.4495C7.54046 28.6076 7.60371 28.6814 7.31911 28.7868L-0.00683594 31.4009V31.285Z" fill="#FFF478"/>
<path d="M9.17443 27.6906L9.02685 27.5642L3.95667 22.6732C3.76693 22.494 3.95667 22.4307 4.01992 22.3358L14.35 12.3536L19.3886 7.47316C19.5678 7.29396 19.6521 7.26234 19.8629 7.47316C21.4862 9.06835 23.1236 10.6495 24.775 12.2166C24.9436 12.3747 24.9436 12.4695 24.775 12.6382L9.3747 27.5009L9.17443 27.6906Z" fill="#FFF478"/>
<path d="M23.0038 3.99463L23.1409 4.12111L28.2005 9.0121C28.3165 9.11751 28.3375 9.18077 28.2005 9.28618C27.5997 9.85539 27.0094 10.4351 26.4191 11.0149C26.2926 11.1414 26.2294 11.1098 26.124 11.0149L21.0749 6.10281C20.9905 6.02903 20.9273 5.96578 21.0749 5.84983L22.9195 4.07896L23.0038 3.99463Z" fill="#FFF478"/>
</g>
</svg>
