<svg width="42" height="33" viewBox="0 0 42 33" fill="none" xmlns="http://www.w3.org/2000/svg">
<path d="M41.4169 29.1113H18.8085C18.4369 29.1113 18.281 29.0394 18.329 28.6318C18.353 28.2846 18.353 27.9361 18.329 27.5889C18.329 27.3971 18.329 27.3132 18.5927 27.2892C21.2279 27.0008 23.675 25.7858 25.4975 23.8608C25.5625 23.7944 25.6399 23.7414 25.7253 23.7049C25.8168 23.6925 25.9095 23.6925 26.001 23.7049H29.6572C29.9449 23.7049 30.0528 23.633 30.0408 23.3333C30.0108 22.7703 30.0108 22.2061 30.0408 21.6431C30.0408 21.3554 29.9449 21.2835 29.6692 21.2954H27.7272C27.4515 21.2954 27.4275 21.2235 27.5474 20.9958C27.8354 20.4922 28.0647 19.9573 28.2307 19.4014C28.2377 19.3468 28.256 19.2942 28.2845 19.247C28.313 19.1999 28.3511 19.1592 28.3962 19.1276C28.4414 19.096 28.4926 19.0742 28.5467 19.0635C28.6007 19.0529 28.6564 19.0537 28.7102 19.0658H36.586C36.9816 19.0658 37.0894 18.9459 37.0655 18.5743C37.0296 18.0675 37.0296 17.5587 37.0655 17.0519C37.0655 16.7162 36.9696 16.6443 36.6579 16.6563H29.2616C28.7581 16.6563 28.7701 16.6563 28.7701 16.1408C28.7942 15.7776 28.7942 15.4132 28.7701 15.05C28.7701 14.7023 28.7701 14.5824 29.2017 14.5824C31.6591 14.5824 34.1165 14.5824 36.562 14.5824C36.9576 14.5824 37.0655 14.4866 37.0415 14.091C37.0175 13.6954 37.0415 13.048 37.0415 12.5326C37.0415 12.2329 36.9576 12.149 36.6699 12.149C33.9967 12.149 31.3354 12.149 28.6622 12.149C28.5421 12.1633 28.4211 12.1318 28.3232 12.0607C28.2254 11.9895 28.1581 11.8841 28.1348 11.7654C27.455 9.78643 26.2447 8.03217 24.636 6.69405C23.0273 5.35594 21.082 4.48535 19.0123 4.17729C18.353 4.06941 18.353 4.0814 18.353 3.39811C18.353 2.39116 18.353 1.39619 18.353 0.389237C18.353 0.1375 18.353 0.041626 18.6886 0.041626H32.2705C32.6061 0.041626 32.6301 0.185472 32.6301 0.449197C32.6301 3.11042 32.6301 5.77165 32.6301 8.43288C32.6301 8.81648 32.738 8.92436 33.1096 8.91237H40.9374H41.4169V29.1113Z" fill="#FFF478"/>
<path d="M5.526 22.8778L8.4989 22.6261C8.57736 22.6174 8.6541 22.5972 8.72666 22.5661C8.79647 22.532 8.85787 22.4829 8.90648 22.4223C9.15821 22.1706 9.39796 21.8949 9.67368 21.6551C9.94939 21.4154 9.87746 21.3674 9.67368 21.1396C8.52514 19.5145 7.93182 17.562 7.98196 15.5726C8.0321 13.5832 8.72302 11.6631 9.95197 10.0979C11.1809 8.53262 12.8822 7.40588 14.8029 6.88514C16.7236 6.36441 18.7611 6.47752 20.6124 7.20766C22.4637 7.9378 24.0298 9.24597 25.0779 10.9376C26.1261 12.6293 26.6002 14.614 26.4298 16.5968C26.2594 18.5795 25.4537 20.4543 24.1323 21.9423C22.8109 23.4304 21.0445 24.4521 19.0959 24.8558C17.8398 25.1252 16.541 25.1257 15.2848 24.8571C14.0285 24.5885 12.8435 24.0569 11.8075 23.2974C11.6037 23.1535 11.4958 23.1775 11.316 23.2974C10.321 24.2924 10.321 24.2923 10.2371 25.8387C10.2371 26.3782 10.1532 26.9176 10.1052 27.493C9.81753 27.3132 5.74178 23.2135 5.526 22.8778ZM24.0946 15.6853C24.1042 13.8677 23.393 12.1204 22.1168 10.8262C20.8405 9.53197 19.1033 8.79634 17.2857 8.78051C15.9231 8.78537 14.5939 9.20334 13.4737 9.97926C12.6236 10.5455 11.9093 11.2928 11.3818 12.1674C10.8542 13.0421 10.5266 14.0226 10.4224 15.0386C10.3181 16.0547 10.4398 17.0813 10.7788 18.0448C11.1177 19.0084 11.6655 19.8851 12.3829 20.6122C13.0982 21.3336 13.9652 21.8867 14.9209 22.2314C15.8766 22.5761 16.897 22.7037 17.9082 22.605C18.9193 22.5063 19.8958 22.1837 20.7668 21.6607C21.6378 21.1377 22.3815 20.4274 22.9438 19.5813C23.7081 18.4268 24.1089 17.0698 24.0946 15.6853Z" fill="#FFF478"/>
<path d="M0.659413 29.0635C0.648176 28.2027 0.975327 27.3719 1.57046 26.7499C2.21779 26.0546 2.90108 25.4073 3.56039 24.724C3.70424 24.5682 3.78815 24.5801 3.932 24.724C5.38649 26.1945 6.84896 27.6649 8.31943 29.1354C8.46328 29.2792 8.47527 29.3632 8.31943 29.519C7.63614 30.1903 7.0008 30.8976 6.28155 31.5449C5.81617 32.0019 5.22137 32.3046 4.57797 32.4118C3.93457 32.5191 3.27376 32.4257 2.6853 32.1443C2.08456 31.9019 1.57076 31.4841 1.21084 30.9455C0.840358 30.3886 0.648037 29.7322 0.659413 29.0635Z" fill="#FFF478"/>
<path d="M35.0397 0.8927L40.6019 6.5508C40.6019 6.61074 40.4581 6.5508 40.3742 6.5508H35.4233C35.2195 6.5508 35.0277 6.5508 35.0397 6.25112V1.01258C35.0349 0.972767 35.0349 0.932516 35.0397 0.8927Z" fill="#1697B3"/>
</svg>
