<svg width="32" height="34" viewBox="0 0 32 34" fill="none" xmlns="http://www.w3.org/2000/svg">
<mask id="mask0_290_2931" style="mask-type:luminance" maskUnits="userSpaceOnUse" x="0" y="0" width="32" height="34">
<path d="M32 0H0V34H32V0Z" fill="white"/>
</mask>
<g mask="url(#mask0_290_2931)">
<path d="M18.5998 18.31C18.5834 18.2852 18.5611 18.2649 18.5349 18.2509C18.5088 18.2369 18.4795 18.2295 18.4498 18.2295C18.4201 18.2295 18.3909 18.2369 18.3647 18.2509C18.3385 18.2649 18.3162 18.2852 18.2998 18.31H18.6898H18.5998Z" fill="#1697B3"/>
<path d="M15.91 1.83C16.15 1.83 16.24 1.78 16.23 1.52C16.23 1.01 16.23 0.52 16.23 0H0V7.2C0 12.64 0 18.0767 0 23.51C0 23.76 0.0599999 23.84 0.31 23.83C1.29 23.83 2.27 23.83 3.25 23.83C3.54 23.83 3.62 23.77 3.62 23.47C3.62 16.39 3.62 9.31334 3.62 2.24001C3.62499 2.15675 3.62499 2.07326 3.62 1.99001C3.62 1.86001 3.67 1.82001 3.8 1.82001C3.93 1.82001 4.34 1.82001 4.61 1.82001L15.91 1.83Z" fill="#1697B3"/>
<path d="M16.4896 30.25C16.8896 29.75 17.2696 29.2501 17.6596 28.7401C17.6963 28.7013 17.7206 28.6526 17.7296 28.6001C17.7429 28.5543 17.7429 28.5058 17.7296 28.4601C17.523 28.0944 17.3618 27.7048 17.2496 27.3C17.2463 27.27 17.2365 27.2411 17.221 27.2152C17.2054 27.1893 17.1845 27.1671 17.1596 27.15C17.1124 27.1082 17.0525 27.0836 16.9896 27.08L15.0896 26.8501C14.9696 26.8501 14.9196 26.85 14.9196 26.68C14.9196 25.79 14.9196 24.91 14.9196 24.0201C14.9196 23.9 14.9696 23.86 15.0796 23.84L16.9896 23.61C17.0487 23.6113 17.106 23.5899 17.1496 23.55C17.1971 23.5111 17.2319 23.4588 17.2496 23.4C17.3601 22.9994 17.5179 22.6134 17.7196 22.25C17.7326 22.2111 17.7326 22.169 17.7196 22.1301C17.7349 22.0881 17.7349 22.042 17.7196 22H14.7196C14.5096 22 14.4496 21.94 14.4596 21.73C14.4596 21.31 14.4596 20.9 14.4596 20.48C14.4596 20.23 14.4596 20.16 14.7596 20.16H16.5196V20.11L18.2796 18.33H16.5096C15.8996 18.33 15.2896 18.33 14.6796 18.33C14.4596 18.33 14.4096 18.26 14.4196 18.06C14.4196 17.63 14.4196 17.2 14.4196 16.78C14.4196 16.56 14.4196 16.4901 14.6996 16.4901H18.9996C20.3896 16.4901 21.7796 16.4901 23.1696 16.4901C23.3596 16.4901 23.4396 16.49 23.4696 16.65H24.7796C24.9096 16.65 24.9596 16.6501 24.9796 16.8201C25.0496 17.4601 25.1296 18.09 25.1996 18.73C25.2017 18.7963 25.2264 18.8598 25.2696 18.91C25.3092 18.9615 25.366 18.997 25.4296 19.01C25.8258 19.1284 26.208 19.2894 26.5696 19.4901C26.5918 19.4994 26.6156 19.5042 26.6396 19.5042C26.6637 19.5042 26.6875 19.4994 26.7096 19.4901C26.7584 19.4851 26.8042 19.464 26.8396 19.43L27.0796 19.2401V7.60005C27.0796 7.34005 26.9996 7.29004 26.7596 7.29004C21.5729 7.29004 16.3796 7.29004 11.1796 7.29004C10.9096 7.29004 10.8496 7.36004 10.8496 7.62004C10.8496 11.48 10.8496 15.34 10.8496 19.2C10.8496 23.07 10.8496 26.94 10.8496 30.8C10.8496 31.05 10.8496 31.1301 11.1496 31.1301H17.1496L16.5896 30.58C16.4096 30.45 16.3896 30.38 16.4896 30.25ZM14.4196 14.4C14.4196 13.99 14.4196 13.59 14.4196 13.18C14.4196 12.95 14.4196 12.8801 14.7096 12.8801H23.1796C23.3896 12.8801 23.4496 12.94 23.4396 13.15C23.4396 13.58 23.4396 14 23.4396 14.43C23.4396 14.65 23.3896 14.7201 23.1596 14.7101C21.7396 14.7101 20.3196 14.7101 18.8996 14.7101C17.4796 14.7101 16.1096 14.7101 14.7196 14.7101C14.4696 14.7201 14.3996 14.64 14.4196 14.4Z" fill="#1697B3"/>
<path d="M18.6602 18.36L20.1002 19.49C20.1166 19.5083 20.1366 19.5231 20.1589 19.5334C20.1813 19.5438 20.2055 19.5494 20.2302 19.55C20.2522 19.5599 20.276 19.565 20.3002 19.565C20.3243 19.565 20.3482 19.5599 20.3702 19.55C20.7277 19.3411 21.1109 19.1797 21.5102 19.07C21.5754 19.0543 21.6335 19.0172 21.6752 18.9647C21.7169 18.9121 21.7398 18.8471 21.7402 18.78C21.7402 18.65 21.7402 18.52 21.7402 18.39C20.7268 18.3566 19.7002 18.3466 18.6602 18.36Z" fill="#1697B3"/>
<path d="M15 5.47C17.12 5.47 19.25 5.47 21.37 5.47C21.63 5.47 21.69 5.39 21.68 5.14C21.65 4.74724 21.65 4.35277 21.68 3.96001C21.68 3.68001 21.6 3.63 21.35 3.63C16.1634 3.63 10.9767 3.63 5.79004 3.63C5.52004 3.63 5.44004 3.69 5.45004 3.98C5.45004 7.82666 5.45004 11.6833 5.45004 15.55C5.45004 19.4 5.45004 23.25 5.45004 27.1C5.45004 27.42 5.55004 27.47 5.83004 27.47C6.83004 27.47 7.76004 27.47 8.72004 27.47C9.01004 27.47 9.07004 27.39 9.07004 27.1C9.07004 19.9867 9.07004 12.8767 9.07004 5.77C9.07004 5.53 9.07003 5.45 9.38003 5.45L15 5.47Z" fill="#1697B3"/>
<path d="M24.92 34H22C21.91 33.3 21.83 32.6 21.75 31.91C21.7513 31.8509 21.7298 31.7936 21.69 31.75C21.6476 31.7087 21.5963 31.6779 21.54 31.66C21.1429 31.5441 20.7604 31.383 20.4 31.18C20.3763 31.1698 20.3508 31.1645 20.325 31.1645C20.2992 31.1645 20.2737 31.1698 20.25 31.18C20.1972 31.1807 20.1469 31.2023 20.11 31.24C19.61 31.64 19.11 32.02 18.62 32.42C18.6035 32.4447 18.5813 32.465 18.5551 32.4791C18.5289 32.4931 18.4997 32.5005 18.47 32.5005C18.4403 32.5005 18.411 32.4931 18.3848 32.4791C18.3587 32.465 18.3364 32.4447 18.32 32.42C17.73 31.81 17.13 31.21 16.53 30.62C16.43 30.51 16.41 30.44 16.53 30.31C16.93 29.81 17.31 29.31 17.7 28.79C17.7383 28.7565 17.7631 28.7104 17.77 28.66C17.7845 28.6144 17.7845 28.5655 17.77 28.52C17.5611 28.1519 17.3998 27.7587 17.29 27.35C17.2736 27.293 17.2425 27.2413 17.2 27.2C17.1518 27.1611 17.0918 27.1399 17.03 27.14L15.13 26.91C15.01 26.91 14.96 26.85 14.96 26.73V24C14.96 23.88 15.01 23.84 15.12 23.82L17.03 23.59C17.0887 23.5894 17.1453 23.5681 17.19 23.53C17.24 23.4907 17.2724 23.4331 17.28 23.37C17.3984 22.9738 17.5593 22.5915 17.76 22.23C17.7791 22.1784 17.7791 22.1216 17.76 22.07C17.7555 22.016 17.7305 21.9659 17.69 21.93C17.31 21.43 16.93 20.93 16.54 20.44C16.44 20.31 16.43 20.24 16.54 20.11C17.14 19.52 17.74 18.92 18.33 18.31C18.3464 18.2852 18.3687 18.2649 18.3948 18.2509C18.421 18.2368 18.4503 18.2295 18.48 18.2295C18.5097 18.2295 18.5389 18.2368 18.5651 18.2509C18.5913 18.2649 18.6135 18.2852 18.63 18.31L20.13 19.49C20.1649 19.5264 20.2103 19.5509 20.26 19.56C20.3055 19.5745 20.3544 19.5745 20.4 19.56C20.7575 19.3511 21.1407 19.1897 21.54 19.08C21.6052 19.0643 21.6633 19.0272 21.705 18.9747C21.7467 18.9221 21.7696 18.8571 21.77 18.79C21.84 18.16 21.93 17.52 21.99 16.89C21.99 16.75 22.07 16.72 22.19 16.72H24.77C24.9 16.72 24.95 16.72 24.97 16.89C25.04 17.53 25.12 18.16 25.19 18.8C25.192 18.8662 25.2167 18.9297 25.26 18.98C25.2995 19.0315 25.3563 19.067 25.42 19.08C25.8162 19.1984 26.1984 19.3593 26.56 19.56C26.5821 19.5693 26.6059 19.5741 26.63 19.5741C26.654 19.5741 26.6778 19.5693 26.7 19.56C26.7488 19.555 26.7945 19.5339 26.83 19.5L28.33 18.31C28.44 18.22 28.51 18.21 28.62 18.31C29.22 18.93 29.82 19.54 30.43 20.14C30.54 20.25 30.52 20.33 30.43 20.44C30.03 20.94 29.65 21.44 29.25 21.95C29.2199 21.9917 29.1994 22.0395 29.19 22.09C29.1754 22.1355 29.1754 22.1844 29.19 22.23C29.3932 22.5973 29.5542 22.9864 29.67 23.39C29.68 23.4495 29.7122 23.5031 29.76 23.54C29.8005 23.5783 29.8542 23.5997 29.91 23.6L31.98 23.85V26.85L29.91 27.1C29.8542 27.1002 29.8005 27.1217 29.76 27.16C29.7128 27.1931 29.6805 27.2433 29.67 27.3C29.5604 27.7056 29.399 28.0955 29.19 28.46C29.1541 28.5017 29.1343 28.5549 29.1343 28.61C29.1343 28.665 29.1541 28.7182 29.19 28.76L30.35 30.26C30.45 30.39 30.44 30.46 30.35 30.57C29.75 31.16 29.16 31.77 28.57 32.37C28.45 32.5 28.37 32.48 28.25 32.37L26.76 31.2C26.7466 31.1807 26.7286 31.1651 26.7076 31.1547C26.6867 31.1442 26.6634 31.1391 26.64 31.14C26.6197 31.1302 26.5975 31.1252 26.575 31.1252C26.5525 31.1252 26.5302 31.1302 26.51 31.14C26.1343 31.3455 25.739 31.513 25.33 31.64C25.2767 31.6529 25.2281 31.6806 25.19 31.72C25.1755 31.7723 25.1755 31.8276 25.19 31.88C25.09 32.6 25 33.3 24.92 34ZM19.92 25.34C19.9196 25.9169 20.0607 26.4852 20.3309 26.995C20.601 27.5048 20.992 27.9406 21.4696 28.2642C21.9472 28.5879 22.4969 28.7896 23.0705 28.8516C23.6441 28.9136 24.2242 28.8341 24.76 28.62C25.1908 28.4451 25.5825 28.1861 25.9122 27.8582C26.2418 27.5303 26.5029 27.1399 26.68 26.71C27.0335 25.8378 27.0335 24.8622 26.68 23.99C26.5005 23.5602 26.239 23.1696 25.91 22.84C25.5827 22.5105 25.1913 22.2519 24.76 22.08C24.332 21.9036 23.8728 21.8152 23.41 21.82C22.4948 21.8461 21.626 22.2287 20.9889 22.8863C20.3519 23.5439 19.997 24.4244 20 25.34H19.92Z" fill="#1697B3"/>
</g>
</svg>
