<svg width="25" height="28" viewBox="0 0 25 28" fill="none" xmlns="http://www.w3.org/2000/svg">
<g clip-path="url(#clip0_298_681)">
<path d="M11.9339 15.7073C16.2651 15.7073 19.7762 12.1911 19.7762 7.85366C19.7762 3.5162 16.2651 0 11.9339 0C7.60269 0 4.09155 3.5162 4.09155 7.85366C4.09155 12.1911 7.60269 15.7073 11.9339 15.7073Z" fill="#FFF478"/>
<path d="M9.81997 17.7561H15.1937C16.4832 17.7561 17.7602 18.0105 18.9516 18.5047C20.143 18.9989 21.2256 19.7233 22.1374 20.6365C23.0493 21.5496 23.7726 22.6338 24.2661 23.8269C24.7596 25.02 25.0136 26.2988 25.0136 27.5903V28H0V27.5903C0 24.9821 1.0346 22.4807 2.8762 20.6365C4.7178 18.7922 7.21555 17.7561 9.81997 17.7561Z" fill="#FFF478"/>
</g>
<defs>
<clipPath id="clip0_298_681">
<rect width="25" height="28" fill="white"/>
</clipPath>
</defs>
</svg>
